<svg width="48.000031" height="48.000000" viewBox="0 0 48 48" fill="none" xmlns="http://www.w3.org/2000/svg" xmlns:xlink="http://www.w3.org/1999/xlink">
	<desc>
			Created with Pixso.
	</desc>
	<defs/>
	<path id="Vector" d="M24 48C37.2341 48 48 37.2341 48 24C48.0058 20.8257 47.3782 17.6823 46.1531 14.7537C46.0244 14.438 45.7357 14.2151 45.3978 14.1711C45.0593 14.1266 44.723 14.267 44.5169 14.5387C44.3114 14.8109 44.2669 15.1727 44.4015 15.4863C45.5297 18.1827 46.1075 21.0773 46.1017 24C46.1017 36.187 36.187 46.1017 24 46.1017C11.813 46.1017 1.89832 36.187 1.89832 24C1.89832 11.813 11.813 1.89832 24 1.89832C26.4767 1.89514 28.9364 2.30933 31.2754 3.12396C31.5959 3.23785 31.9534 3.17108 32.2113 2.94916C32.4693 2.72778 32.589 2.38452 32.5249 2.05035C32.4608 1.71613 32.2225 1.44177 31.9004 1.3316C29.3602 0.447021 26.6896 -0.00317383 24 0C10.7659 0 0 10.7659 0 24C0 37.2341 10.7659 48 24 48Z" fill="#156963" fill-opacity="1.000000" fill-rule="nonzero"/>
</svg>
