<svg width="11.914215" height="27.661011" viewBox="0 0 11.9142 27.661" fill="none" xmlns="http://www.w3.org/2000/svg" xmlns:xlink="http://www.w3.org/1999/xlink">
	<desc>
			Created with Pixso.
	</desc>
	<defs/>
	<path id="Vector" d="M5.95709 4.6499C8.19757 4.65253 10.0132 6.4682 10.0159 8.70868C10.0159 9.23303 10.4407 9.65784 10.9651 9.65784C11.4894 9.65784 11.9142 9.23303 11.9142 8.70868C11.9105 5.78656 9.79025 3.29712 6.90625 2.82788L6.90625 0.949158C6.90625 0.424805 6.48148 0 5.95709 0C5.43274 0 5.00797 0.424805 5.00797 0.949158L5.00797 2.82788C1.94333 3.32416 -0.226685 6.09003 0.0217285 9.18488C0.269592 12.2791 2.85275 14.6642 5.95709 14.6653C8.18909 14.6653 10.0027 16.4677 10.0154 18.7002C10.0286 20.9322 8.23624 22.7558 6.00424 22.7818C5.98834 22.7807 5.97299 22.7791 5.95709 22.7791C5.94122 22.7791 5.92584 22.7807 5.90997 22.7818C3.68805 22.7537 1.90097 20.946 1.89832 18.7241C1.89832 18.1997 1.47351 17.7749 0.949158 17.7749C0.424774 17.7749 0 18.1997 0 18.7241C0.00369263 21.6462 2.12341 24.1356 5.00797 24.6049L5.00797 26.7119C5.00797 27.2362 5.43274 27.661 5.95709 27.661C6.48148 27.661 6.90625 27.2362 6.90625 26.7119L6.90625 24.6049C9.97141 24.1102 12.1425 21.3432 11.8941 18.2484C11.6462 15.1536 9.06198 12.768 5.95709 12.768C4.50159 12.7759 3.15256 12.0042 2.42267 10.7452C1.69226 9.48572 1.69226 7.93219 2.42267 6.67267C3.15256 5.41364 4.50159 4.64197 5.95709 4.65045L5.95709 4.6499Z" fill="#156963" fill-opacity="1.000000" fill-rule="nonzero"/>
</svg>
